<?xml version="1.0" encoding="UTF-8" standalone="no"?>
<!DOCTYPE svg PUBLIC "-//W3C//DTD SVG 1.1//EN"
 "http://www.w3.org/Graphics/SVG/1.1/DTD/svg11.dtd">
<!-- Generated by graphviz version 2.38.0 (20140413.2041)
 -->
<!-- Title: proof Pages: 1 -->
<svg width="787pt" height="713pt"
 viewBox="0.00 0.00 787.09 713.19" xmlns="http://www.w3.org/2000/svg" xmlns:xlink="http://www.w3.org/1999/xlink">
<g id="graph0" class="graph" transform="scale(1 1) rotate(0) translate(4 709.193)">
<title>proof</title>
<polygon fill="black" stroke="none" points="-4,4 -4,-709.193 783.089,-709.193 783.089,4 -4,4"/>
<!-- 1 -->
<g id="node1" class="node"><title>1</title>
<ellipse fill="none" stroke="gold" cx="201.589" cy="-657.11" rx="178.382" ry="48.1667"/>
<text text-anchor="middle" x="201.589" y="-675.91" font-family="Times,serif" font-size="14.00" fill="gold">C</text>
<text text-anchor="middle" x="201.589" y="-660.91" font-family="Times,serif" font-size="14.00" fill="gold">((((G &amp; (C &amp; A)) &amp; ~(B &#45;&gt; A)) v G) &amp; F)</text>
<text text-anchor="middle" x="201.589" y="-645.91" font-family="Times,serif" font-size="14.00" fill="gold">~~~D</text>
<text text-anchor="middle" x="201.589" y="-630.91" font-family="Times,serif" font-size="14.00" fill="gold">~(G v E)</text>
</g>
<!-- 2 -->
<g id="node2" class="node"><title>2</title>
<ellipse fill="none" stroke="gold" cx="201.589" cy="-514.337" rx="153.384" ry="58.8803"/>
<text text-anchor="middle" x="201.589" y="-540.637" font-family="Times,serif" font-size="14.00" fill="gold">(((G &amp; (C &amp; A)) &amp; ~(B &#45;&gt; A)) v G)</text>
<text text-anchor="middle" x="201.589" y="-525.637" font-family="Times,serif" font-size="14.00" fill="gold">F</text>
<text text-anchor="middle" x="201.589" y="-510.637" font-family="Times,serif" font-size="14.00" fill="gold">~D</text>
<text text-anchor="middle" x="201.589" y="-495.637" font-family="Times,serif" font-size="14.00" fill="gold">~G</text>
<text text-anchor="middle" x="201.589" y="-480.637" font-family="Times,serif" font-size="14.00" fill="gold">~E</text>
</g>
<!-- 1&#45;&gt;2 -->
<g id="edge1" class="edge"><title>1&#45;&gt;2</title>
<path fill="none" stroke="gold" d="M201.589,-608.843C201.589,-600.69 201.589,-592.073 201.589,-583.499"/>
<polygon fill="gold" stroke="gold" points="205.089,-583.485 201.589,-573.485 198.089,-583.485 205.089,-583.485"/>
</g>
<!-- 3 -->
<g id="node3" class="node"><title>3</title>
<ellipse fill="none" stroke="gold" cx="119.589" cy="-401.647" rx="119.679" ry="18"/>
<text text-anchor="middle" x="119.589" y="-397.947" font-family="Times,serif" font-size="14.00" fill="gold">((G &amp; (C &amp; A)) &amp; ~(B &#45;&gt; A))</text>
</g>
<!-- 2&#45;&gt;3 -->
<g id="edge2" class="edge"><title>2&#45;&gt;3</title>
<path fill="none" stroke="gold" d="M160.349,-457.667C152.612,-447.223 144.886,-436.794 138.274,-427.869"/>
<polygon fill="gold" stroke="gold" points="141.077,-425.772 132.312,-419.821 135.452,-429.939 141.077,-425.772"/>
</g>
<!-- 4 -->
<g id="node4" class="node"><title>4</title>
<ellipse fill="none" stroke="gold" cx="284.589" cy="-401.647" rx="27" ry="18"/>
<text text-anchor="middle" x="284.589" y="-397.947" font-family="Times,serif" font-size="14.00" fill="gold">G</text>
</g>
<!-- 2&#45;&gt;4 -->
<g id="edge3" class="edge"><title>2&#45;&gt;4</title>
<path fill="none" stroke="gold" d="M243.333,-457.667C251.531,-446.734 259.717,-435.817 266.61,-426.624"/>
<polygon fill="gold" stroke="gold" points="269.583,-428.494 272.782,-418.394 263.982,-424.295 269.583,-428.494"/>
</g>
<!-- 5 -->
<g id="node5" class="node"><title>5</title>
<ellipse fill="none" stroke="gold" cx="119.589" cy="-320.777" rx="71.3357" ry="26.7407"/>
<text text-anchor="middle" x="119.589" y="-324.577" font-family="Times,serif" font-size="14.00" fill="gold">(G &amp; (C &amp; A))</text>
<text text-anchor="middle" x="119.589" y="-309.577" font-family="Times,serif" font-size="14.00" fill="gold">~(B &#45;&gt; A)</text>
</g>
<!-- 3&#45;&gt;5 -->
<g id="edge4" class="edge"><title>3&#45;&gt;5</title>
<path fill="none" stroke="gold" d="M119.589,-383.533C119.589,-376.044 119.589,-366.952 119.589,-358.075"/>
<polygon fill="gold" stroke="gold" points="123.089,-357.86 119.589,-347.86 116.089,-357.86 123.089,-357.86"/>
</g>
<!-- 10 -->
<g id="node9" class="node"><title>10</title>
<ellipse fill="none" stroke="gold" cx="284.589" cy="-320.777" rx="42.4939" ry="18"/>
<text text-anchor="middle" x="284.589" y="-317.077" font-family="Times,serif" font-size="14.00" fill="gold">XXXXX</text>
</g>
<!-- 4&#45;&gt;10 -->
<g id="edge8" class="edge"><title>4&#45;&gt;10</title>
<path fill="none" stroke="gold" d="M284.589,-383.533C284.589,-373.508 284.589,-360.613 284.589,-349.201"/>
<polygon fill="gold" stroke="gold" points="288.089,-348.857 284.589,-338.857 281.089,-348.857 288.089,-348.857"/>
</g>
<!-- 6 -->
<g id="node6" class="node"><title>6</title>
<ellipse fill="none" stroke="gold" cx="119.589" cy="-209.823" rx="44.5955" ry="48.1667"/>
<text text-anchor="middle" x="119.589" y="-228.623" font-family="Times,serif" font-size="14.00" fill="gold">G</text>
<text text-anchor="middle" x="119.589" y="-213.623" font-family="Times,serif" font-size="14.00" fill="gold">(C &amp; A)</text>
<text text-anchor="middle" x="119.589" y="-198.623" font-family="Times,serif" font-size="14.00" fill="gold">B</text>
<text text-anchor="middle" x="119.589" y="-183.623" font-family="Times,serif" font-size="14.00" fill="gold">~A</text>
</g>
<!-- 5&#45;&gt;6 -->
<g id="edge5" class="edge"><title>5&#45;&gt;6</title>
<path fill="none" stroke="gold" d="M119.589,-293.68C119.589,-285.904 119.589,-277.058 119.589,-268.11"/>
<polygon fill="gold" stroke="gold" points="123.089,-268.017 119.589,-258.017 116.089,-268.017 123.089,-268.017"/>
</g>
<!-- 7 -->
<g id="node7" class="node"><title>7</title>
<ellipse fill="none" stroke="gold" cx="119.589" cy="-98.8701" rx="27" ry="26.7407"/>
<text text-anchor="middle" x="119.589" y="-102.67" font-family="Times,serif" font-size="14.00" fill="gold">C</text>
<text text-anchor="middle" x="119.589" y="-87.6701" font-family="Times,serif" font-size="14.00" fill="gold">A</text>
</g>
<!-- 6&#45;&gt;7 -->
<g id="edge6" class="edge"><title>6&#45;&gt;7</title>
<path fill="none" stroke="gold" d="M119.589,-161.669C119.589,-153.015 119.589,-144.11 119.589,-135.849"/>
<polygon fill="gold" stroke="gold" points="123.089,-135.797 119.589,-125.797 116.089,-135.797 123.089,-135.797"/>
</g>
<!-- 9 -->
<g id="node8" class="node"><title>9</title>
<ellipse fill="none" stroke="gold" cx="119.589" cy="-18" rx="42.4939" ry="18"/>
<text text-anchor="middle" x="119.589" y="-14.3" font-family="Times,serif" font-size="14.00" fill="gold">XXXXX</text>
</g>
<!-- 7&#45;&gt;9 -->
<g id="edge7" class="edge"><title>7&#45;&gt;9</title>
<path fill="none" stroke="gold" d="M119.589,-71.6075C119.589,-63.5064 119.589,-54.5675 119.589,-46.3924"/>
<polygon fill="gold" stroke="gold" points="123.089,-46.22 119.589,-36.22 116.089,-46.2201 123.089,-46.22"/>
</g>
<!-- INFO_NODE -->
<g id="node10" class="node"><title>INFO_NODE</title>
<polygon fill="none" stroke="gold" points="779.089,-676.11 398.089,-676.11 398.089,-638.11 779.089,-638.11 779.089,-676.11"/>
<text text-anchor="middle" x="588.589" y="-660.91" font-family="Times,serif" font-size="14.00" fill="gold">The conclusion is the negation of the last premise in the top node.</text>
<text text-anchor="middle" x="588.589" y="-645.91" font-family="Times,serif" font-size="14.00" fill="gold">XXXXX is used to denote a branch which contains a contradiction</text>
</g>
</g>
</svg>
